# xmcd CD database file
#
# Track frame offsets:
#	150
#	19240
#	32335
#	50752
#	65175
#	84807
#	103567
#	121527
#	138917
#	158300
#	175752
#	194092
#	212405
#	229927
#	248555
#	268007
#	288307
#	305820
#	324927
#
# Disc length: 4519 seconds
#
# Revision: 2
# Processed by: cddbd v1.5.2PL0 Copyright (c) Steve Scherf et al.
# Submitted via: CDex 1.51
#
DISCID=fc11a513
DTITLE=???? - ????????????? [CD2]
DYEAR=1900
DGENRE=Pop
TTITLE0=???
TTITLE1=??????
TTITLE2=??????
TTITLE3=??(???)
TTITLE4=??(????)???????
TTITLE5=???????
TTITLE6=??????
TTITLE7=???????
TTITLE8=??
TTITLE9=20(???)??
TTITLE10=?
TTITLE11=??
TTITLE12=???
TTITLE13=??
TTITLE14=????????????
TTITLE15=??????
TTITLE16=??????
TTITLE17=???
TTITLE18=??+(???)??
EXTD=
EXTT0=
EXTT1=
EXTT2=
EXTT3=
EXTT4=
EXTT5=
EXTT6=
EXTT7=
EXTT8=
EXTT9=
EXTT10=
EXTT11=
EXTT12=
EXTT13=
EXTT14=
EXTT15=
EXTT16=
EXTT17=
EXTT18=
PLAYORDER=
